<?xml version="1.0" encoding="utf-8"?>
<!-- Generator: Adobe Illustrator 23.0.1, SVG Export Plug-In . SVG Version: 6.00 Build 0)  -->
<svg version="1.1" id="Layer_1" xmlns="http://www.w3.org/2000/svg" xmlns:xlink="http://www.w3.org/1999/xlink" x="0px" y="0px"
	 viewBox="0 0 500 500" style="enable-background:new 0 0 500 500;" xml:space="preserve">
<style type="text/css">
	.st0{fill:#FFFFFF;}
	.st1{fill:#FF7F50;}
	.st2{fill:#FFFFFF;stroke:#000000;stroke-miterlimit:10;}
	.st3{display:none;fill:#DEB887;}
</style>
<g>
	<path class="st0" d="M366,56C336.3,26.4,295.3,8,250,8c-23.2,0-45.2,4.8-65.2,13.5c-19.9,8.6-37.8,21.1-52.6,36.5
		c-1.6,1.5-2.6,3.5-2.6,5.8c0,4.4,3.6,8,8,8c2,0,3.9-0.8,5.3-2l0,0l0.1-0.1c0.1-0.1,0.3-0.3,0.4-0.4l1.9-1.9c0,0,0.1-0.1,0.1-0.1
		c-7.4,7.4-14,15.5-19.7,24.3c0.1-0.1,0.2-0.3,0.3-0.4l0,0c0.8-1.3,1.3-2.8,1.3-4.4c0-4.4-3.6-8-8-8c-2.8,0-5.3,1.4-6.7,3.6l0,0
		c-4.9,7.5-9.3,15.5-12.9,23.8h0c-0.4,1-0.7,2.4-0.7,3.6c0,4.4,3.6,7.6,8,7.6c2.6,0,5.2-1.1,6.7-3c-0.4,0.5-0.7,1.1-1,1.7
		c-3,7.4-5.4,15.3-7.2,23.2c0-0.2,0.1-0.4,0.1-0.5h0c0.1-0.6,0.2-1.2,0.2-1.8c0-4.4-3.6-8-8-8c-3.8,0-7,2.7-7.8,6.2l0,0
		c0,0,0,0.1,0,0.1c0,0.1,0,0.1,0,0.2c-1.2,5.1-2.1,10.3-2.8,15.6h0c0,0.3-0.1,0.7-0.1,1c0,4.4,3.6,8,8,8c4.1,0,7.4-3.1,7.9-7h0
		c0.6-4.3,1.3-8.6,2.2-12.8c-0.1,0.5-0.1,0.9-0.1,1.4c0,4.4,3.6,8,8,8c3.8,0,7-2.7,7.8-6.3c0.1-0.5,0.2-1.1,0.4-1.6
		c-1.7,7.2-2.8,14.7-3.2,22.3c0-0.1,0-0.2,0-0.3h0c0-0.2,0-0.3,0-0.5c0-4.4-3.6-8-8-8c-4.3,0-7.7,3.3-8,7.5h0
		c-0.2,2.7-0.2,5.5-0.3,8.3c-0.3-4.1-3.8-7.3-8-7.3c-4.4,0-8,3.6-8,8h16h0H118h16c0-9.8,0.9-18.1,3.2-27.2c-0.1,0.2,0,0.1,0,0l0,0
		c0.1-0.6,0.2-1.2,0.2-1.9c0-4.4-3.6-8-8-8c-3.8,0-6.9,2.6-7.8,6.1c1.6-6.4,3.6-12.7,6-18.8h0c0.4-0.9,0.6-1.9,0.6-3
		c0-4.4-3.6-8-8-8c-2.5,0-4.8,1.1-6.3,2.9c0.3-0.4,0.5-0.8,0.7-1.2c3.2-7.3,6.6-14.5,10.8-21l0,0c-0.8,1.3-1.3,2.7-1.3,4.3
		c0,4.4,3.6,8,8,8c2.8,0,5.3-1.5,6.7-3.7l0,0c0.1-0.2,0.3-0.4,0.4-0.7c-4.2,6.4-7.8,13.2-10.9,20.3c0,0,0,0,0,0l0,0l0,0
		c-0.4,1-0.6,2-0.6,3.1c0,4.4,3.6,8,8,8c3.3,0,6.2-2.1,7.4-4.9C161,84.8,202.1,56,250,56c64.1,0,116,51.9,116,116h16h16h8h8
		C414,126.7,395.6,85.7,366,56z"/>
	<path class="st1" d="M142.9,127.5"/>
	<path class="st1" d="M137.2,144.8L137.2,144.8C137.3,144.6,137.2,144.7,137.2,144.8z"/>
	<rect x="86" y="244" class="st2" width="48" height="240"/>
	<rect x="366" y="244" class="st2" width="48" height="240"/>
	<rect x="134.4" y="244.4" class="st3" width="231.2" height="239.2"/>
	<path class="st2" d="M314,244.4h51.6v239.2H134.4V244.4h47.7c0,0-9.2,204.1,41.9,199.8L261,452l34-16l17-31L314,244.4z"/>
	<g>
		
			<rect x="243" y="417.4" transform="matrix(0.7071 -0.7071 0.7071 0.7071 -217.7608 325.0984)" class="st0" width="81.1" height="16"/>
		
			<rect x="169.3" y="357.4" transform="matrix(0.7071 -0.7071 0.7071 0.7071 -184.2674 285.9526)" class="st0" width="167.4" height="16"/>
		
			<rect x="166.2" y="278.9" transform="matrix(0.7071 -0.7071 0.7071 0.7071 -132.2405 254.4826)" class="st0" width="149.7" height="16"/>
		
			<rect x="253.3" y="236" transform="matrix(0.7071 -0.7071 0.7071 0.7071 -96.0005 256.2289)" class="st0" width="16" height="16"/>
		
			<rect x="252.4" y="215.7" transform="matrix(0.7071 -0.7071 0.7071 0.7071 -127.6413 268.6302)" class="st0" width="16" height="145.4"/>
		
			<rect x="196.7" y="299.2" transform="matrix(0.7071 -0.7071 0.7071 0.7071 -168.5638 239.4401)" class="st0" width="16" height="48"/>
		
			<rect x="207.8" y="385.1" transform="matrix(0.7071 -0.7071 0.7071 0.7071 -237.14 276.9793)" class="st0" width="16" height="79.2"/>
		
			<rect x="162.4" y="315" transform="matrix(0.7071 -0.7071 0.7071 0.7071 -155.1473 271.5045)" class="st0" width="175.5" height="16"/>
		
			<rect x="198.4" y="390.6" transform="matrix(0.7071 -0.7071 0.7071 0.7071 -204.2189 304.2003)" class="st0" width="133.3" height="16"/>
		
			<rect x="173.6" y="259.7" transform="matrix(0.7071 -0.7071 0.7071 0.7071 -126.2847 230.4367)" class="st0" width="82.9" height="16"/>
		
			<rect x="196.7" y="344.4" transform="matrix(0.7071 -0.7071 0.7071 0.7071 -200.5623 252.6912)" class="st0" width="16" height="48"/>
		
			<rect x="242" y="389.7" transform="matrix(0.7071 -0.7071 0.7071 0.7071 -219.3126 297.9478)" class="st0" width="16" height="48"/>
		
			<rect x="287.2" y="253.9" transform="matrix(0.7071 -0.7071 0.7071 0.7071 -110.0483 290.1653)" class="st0" width="16" height="47.9"/>
		
			<rect x="242" y="344.4" transform="matrix(0.7071 -0.7071 0.7071 0.7071 -187.3112 284.6897)" class="st0" width="16" height="48"/>
		
			<rect x="281.3" y="392.2" transform="matrix(0.7071 -0.7071 0.7071 0.7071 -203.5852 323.9857)" class="st0" width="16" height="31.1"/>
		
			<rect x="196.7" y="253.9" transform="matrix(0.7071 -0.7071 0.7071 0.7071 -136.5625 226.1819)" class="st0" width="16" height="48"/>
		
			<rect x="242" y="299.2" transform="matrix(0.7071 -0.7071 0.7071 0.7071 -155.3127 271.4385)" class="st0" width="16" height="48"/>
		
			<rect x="287.2" y="344.5" transform="matrix(0.7071 -0.7071 0.7071 0.7071 -174.0601 316.6882)" class="st0" width="16" height="48"/>
		
			<rect x="298.6" y="236" transform="matrix(0.7071 -0.7071 0.7071 0.7071 -82.7426 288.2405)" class="st0" width="16" height="16"/>
		
			<rect x="185.4" y="236" transform="matrix(0.7071 -0.7071 0.7071 0.7071 -115.9247 208.2184)" class="st0" width="16" height="16"/>
	</g>
	<path class="st2" d="M194,237.4V388c0,30.9,25.1,56,56,56s56-25.1,56-56l-0.4-150.6H322V388c0,39.8-32.2,72-72,72s-72-32.2-72-72
		V237.4H194z"/>
	<rect x="134" y="172" class="st2" width="232" height="72"/>
	<g>
		<path class="st2" d="M216,212h-38c-4.4,0-8,3.6-8,8s3.6,8,8,8h38c4.4,0,8-3.6,8-8S220.4,212,216,212z"/>
		<path class="st2" d="M322,212h-80.3c-4.4,0-8,3.6-8,8s3.6,8,8,8H322c4.4,0,8-3.6,8-8S326.4,212,322,212z"/>
	</g>
	<path class="st2" d="M322,188H178c-4.4,0-8,3.6-8,8s3.6,8,8,8h144c4.4,0,8-3.6,8-8S326.4,188,322,188z"/>
	<g>
		<path class="st2" d="M140,484c0,4.4-3.6,8-8,8H88c-4.4,0-8-3.6-8-8v-24c0-4.4,3.6-8,8-8h44c4.4,0,8,3.6,8,8V484z"/>
	</g>
	<g>
		<path class="st2" d="M420,484c0,4.4-3.6,8-8,8h-44c-4.4,0-8-3.6-8-8v-24c0-4.4,3.6-8,8-8h44c4.4,0,8,3.6,8,8V484z"/>
	</g>
	<g>
		<path class="st2" d="M86,172c-6.6,0-12,5.4-12,12c0,6.6,5.4,12,12,12h48v-24H86z"/>
		<path class="st2" d="M86,196c-6.6,0-12,5.4-12,12c0,6.6,5.4,12,12,12h48v-24H86z"/>
		<path class="st2" d="M86,220c-6.6,0-12,5.4-12,12c0,6.6,5.4,12,12,12h48v-24H86z"/>
	</g>
	<g>
		<path class="st2" d="M414,172h-48v24h48c6.6,0,12-5.4,12-12C426,177.4,420.6,172,414,172z"/>
		<path class="st2" d="M414,196h-48v24h48c6.6,0,12-5.4,12-12C426,201.4,420.6,196,414,196z"/>
		<path class="st2" d="M414,220h-48v24h48c6.6,0,12-5.4,12-12C426,225.4,420.6,220,414,220z"/>
	</g>
</g>
</svg>
