<?xml version="1.0" encoding="utf-8"?>
<!-- Generator: Adobe Illustrator 23.0.1, SVG Export Plug-In . SVG Version: 6.00 Build 0)  -->
<svg version="1.1" id="Layer_1" xmlns="http://www.w3.org/2000/svg" xmlns:xlink="http://www.w3.org/1999/xlink" x="0px" y="0px"
	 viewBox="0 0 1000 1000" style="enable-background:new 0 0 1000 1000;" xml:space="preserve">
<style type="text/css">
	.st0{fill:#FFFFFF;}
	.st1{fill:none;stroke:#C7C8CA;stroke-width:1.4191;stroke-miterlimit:10;}
</style>
<g>
	<g>
		<path class="st0" d="M552.6,808.8c0,16.6,2.3,29.9,7,39.9c4.7,10,10.9,17.7,18.7,23.1c7.8,5.4,17,8.9,27.7,10.6
			c10.7,1.7,22,2.6,33.7,2.6h24.4v44.6H333.8V885h24.4c11.8,0,22.9-0.8,33.5-2.3c10.5-1.6,19.8-4.8,27.7-9.6
			c8-4.8,14.3-12,18.9-21.5c4.7-9.5,7-22,7-37.6V224.4H343.6c-15.6,0-28.6,2.3-39.1,7c-10.5,4.7-19.2,11-25.9,18.9
			c-6.7,8-11.8,17.2-15,27.7c-3.3,10.5-5.6,21.7-7,33.5l-5.7,45.6h-55l5.2-185.6H799l5.2,185.6h-55l-5.2-45.6
			c-1.4-11.8-3.8-22.9-7.3-33.5c-3.5-10.5-8.5-19.8-15-27.7c-6.6-7.9-15.2-14.3-25.9-18.9c-10.7-4.7-24-7-39.9-7H552.6L552.6,808.8
			L552.6,808.8z"/>
	</g>
	<polygon class="st1" points="223.3,598 338.2,598 223.3,284 108.3,598 	"/>
	<polygon class="st1" points="776.7,597.4 891.7,597.4 776.7,283.4 661.8,597.4 	"/>
	<rect x="490.1" y="156" class="st0" width="19.9" height="44"/>
	<path class="st0" d="M509.8,131.6c0,0-7.3-7.3-9.8-61.2c-2.5,53.8-9.8,61.2-9.8,61.2c-41.6-14.7-17.1,24.5-17.1,24.5
		c0-26.9,17.1,0,17.1,0h9.8h9.8c0,0,17.1-26.9,17.1,0C526.9,156,551.4,116.9,509.8,131.6z"/>
	<g>
		<g>
			<path class="st0" d="M335.5,597.5c1.6,0,2,1,0.9,2.1l-22.8,22.8c-1.2,1.2-3.5,2.1-5.1,2.1h-170c-1.6,0-3.9-1-5.1-2.1l-22.8-22.8
				c-1.2-1.2-0.8-2.1,0.9-2.1H335.5z"/>
		</g>
		<polygon class="st0" points="121.3,610.3 108.5,597.5 338.5,597.5 325,611 		"/>
	</g>
	<g>
		<g>
			<path class="st0" d="M888.5,597.5c1.7,0,2,1,0.9,2.1l-22.8,22.8c-1.2,1.2-3.5,2.1-5.1,2.1h-170c-1.7,0-4-1-5.1-2.1l-22.8-22.8
				c-1.2-1.2-0.8-2.1,0.9-2.1H888.5z"/>
		</g>
		<polygon class="st0" points="674.3,610.3 661.5,597.5 891.5,597.5 878,611 		"/>
	</g>
</g>
</svg>
